# xmcd CD database file
#
# Track frame offsets:
#	150
#	58926
#	85048
#	119315
#	182754
#	196732
#	209293
#	218946
#	226647
#	279372
#
# Disc length: 3875 seconds
#
# Revision: 0
# Processed by: cddbd v1.4PL0 Copyright (c) Steve Scherf et al.
# Submitted via: CDex 1.50
#
DISCID=860f210a
DTITLE=Wes Montgomery - Complete Live At Jorgies
DYEAR=1963
DGENRE=Jazz
TTITLE0=All Of You
TTITLE1=Heartstrings
TTITLE2=Summertime
TTITLE3=Back To Bach To Bock
TTITLE4=There Will Never Be Another You
TTITLE5=Let's Make The Most Of A Beautiful Thing
TTITLE6=The More I See You
TTITLE7=More Than Likely
TTITLE8=Starlight
TTITLE9=Round Midnight
EXTD=YEAR: 1963
EXTT0=
EXTT1=
EXTT2=
EXTT3=
EXTT4=
EXTT5=
EXTT6=
EXTT7=
EXTT8=
EXTT9=
PLAYORDER=
